PathFileType  4	(X/Y/Z) C:\Users\HPL 1\Documents/Temp/Sub278498/Files_W_HJCs/
DataRate	CameraRate	NumFrames	NumMarkers	Units	OrigDataRate	OrigDataStartFrame	OrigNumFrames
50.0	50.0	6	42	mm	50.0	171	227
Frame#	Time  	r_knee			r_shank(antsup)			r_ankle			r_calc			r_5meta			r_toe			L_knee			L_shank(ant_sup)			L_ankle			L_calc			L_5meta			L_toe			r_mknee			r_mankle			L_mknee			L_mankle			r_sh2			r_sh3			r_sh4			L_sh2			L_sh3			r_thigh1			r_thigh2			r_thigh3			r_thigh4			r_thigh5			L_thigh1			L_thigh2			L_thigh3			L_thigh4			r.ASIS			r.PSIS			L.ASIS			L.PSIS			C7			R_Shoulder			L_Shoulder			Sternum			R_HJC			L_HJC			R_HJC_reg			L_HJC_reg			
		X1	Y1	Z1	X2	Y2	Z2	X3	Y3	Z3	X4	Y4	Z4	X5	Y5	Z5	X6	Y6	Z6	X7	Y7	Z7	X8	Y8	Z8	X9	Y9	Z9	X10	Y10	Z10	X11	Y11	Z11	X12	Y12	Z12	X13	Y13	Z13	X14	Y14	Z14	X15	Y15	Z15	X16	Y16	Z16	X17	Y17	Z17	X18	Y18	Z18	X19	Y19	Z19	X20	Y20	Z20	X21	Y21	Z21	X22	Y22	Z22	X23	Y23	Z23	X24	Y24	Z24	X25	Y25	Z25	X26	Y26	Z26	X27	Y27	Z27	X28	Y28	Z28	X29	Y29	Z29	X30	Y30	Z30	X31	Y31	Z31	X32	Y32	Z32	X33	Y33	Z33	X34	Y34	Z34	X35	Y35	Z35	X36	Y36	Z36	X37	Y37	Z37	X38	Y38	Z38	X39	Y39	Z39	X40	Y40	Z40	X41	Y41	Z41	X42	Y42	Z42	

171	3.40000	777.60736	575.54205	-408.91974	790.74652	490.90073	-404.04684	735.25757	114.36504	-409.10388	646.55377	71.53244	-452.18005	847.16809	39.31306	-382.25793	886.27313	73.35695	-445.09253	771.24097	572.97980	-732.46527	795.04022	456.20697	-733.61792	705.83630	113.78146	-731.85498	630.08813	73.98235	-681.17279	821.08380	42.41616	-777.87067	868.44293	70.67860	-721.43250	775.14111	554.28802	-534.30334	747.35358	120.77261	-505.38474	788.38000	561.92517	-609.84454	737.32007	120.78671	-642.10242	786.24060	370.84821	-401.04700	715.69446	491.40225	-392.12149	704.17737	375.61655	-385.94193	707.64417	476.75549	-752.38379	694.80676	354.82181	-753.57751	850.17822	897.41187	-394.30948	847.94055	782.37726	-394.24622	802.40503	750.11273	-381.31824	737.07819	892.85675	-384.80179	741.71698	775.62103	-393.69611	864.57617	838.55408	-751.82977	863.74847	700.46368	-742.58704	749.47961	838.74182	-771.96033	751.67957	704.52399	-752.58643	875.20465	1093.53369	-445.54230	686.74304	1127.10693	-539.94055	886.35925	1095.35522	-703.28839	695.74762	1126.23572	-622.32764	734.52972	1608.64453	-586.74438	776.32446	1581.82959	-421.27377	803.83856	1575.40918	-762.14465	876.30273	1534.90125	-577.80884	805.54787	1005.46017	-458.49057	814.92945	1007.32495	-694.66152	800.70638	1018.02712	-489.36564	819.20566	1016.23728	-658.62418
172	3.42000	777.63348	575.52167	-408.94818	790.84949	490.92197	-404.08484	735.28534	114.35281	-409.09897	646.54828	71.53381	-452.14966	847.16644	39.31783	-382.25189	886.28497	73.38414	-445.08582	771.51471	572.97473	-732.46490	795.33673	456.18085	-733.59314	705.89886	113.87051	-731.84814	630.06714	74.02910	-681.13513	821.04901	42.45444	-777.85638	868.45178	70.66093	-721.41028	775.18768	554.25677	-534.31946	747.32690	120.74580	-505.39209	788.67633	561.91553	-609.91089	737.40845	120.81881	-642.08124	786.30676	370.82791	-401.09058	715.76862	491.39832	-392.11584	704.25220	375.64557	-385.96484	707.95184	476.72748	-752.40894	695.02222	354.80194	-753.59180	850.28943	897.41272	-394.34641	848.07263	782.29822	-394.29538	802.49243	750.04828	-381.29608	737.15472	892.85474	-384.80807	741.79156	775.55780	-393.74356	864.67657	838.57971	-751.91058	863.97034	700.42657	-742.69006	749.61658	838.82440	-772.06195	751.99554	704.47437	-752.69659	875.22241	1093.51331	-445.70139	686.74799	1127.11609	-539.99432	886.44153	1095.38855	-703.40460	695.73334	1126.20117	-622.36682	734.61993	1608.68823	-586.61322	776.43542	1581.77429	-421.19296	803.85620	1575.43713	-762.06543	876.36554	1534.88342	-577.81470	805.59958	1005.43719	-458.60491	814.95302	1007.34817	-694.77661	800.73590	1018.12070	-489.46344	819.19643	1016.24098	-658.69891
173	3.44000	777.70337	575.49799	-408.99219	790.87366	490.90747	-404.10587	735.27808	114.36615	-409.10947	646.55078	71.58451	-452.13748	847.17706	39.35216	-382.21878	886.27972	73.36749	-445.08521	771.67828	572.96985	-732.48199	795.52319	456.14709	-733.62579	705.90784	113.88602	-731.84601	630.11133	74.04631	-681.16541	821.07031	42.45802	-777.84705	868.45984	70.65458	-721.39893	775.24194	554.25580	-534.37244	747.38373	120.78699	-505.41635	788.93738	561.94330	-609.90228	737.45160	120.83706	-642.04669	786.31421	370.82516	-401.15042	715.81738	491.41751	-392.13818	704.33582	375.61679	-386.00018	708.10712	476.71805	-752.41925	695.07019	354.83420	-753.60120	850.42157	897.39258	-394.42776	848.09656	782.25684	-394.42712	802.58337	750.00214	-381.38434	737.34247	892.74670	-384.78815	741.88141	775.49005	-393.74243	864.80719	838.58496	-751.97833	864.15332	700.45740	-742.78687	749.83160	838.71698	-772.16364	752.16937	704.46582	-752.71350	875.29828	1093.50269	-445.75482	686.82831	1127.07410	-540.06323	886.51917	1095.42004	-703.49884	695.72504	1126.26611	-622.42950	734.73993	1608.68176	-586.48499	776.57001	1581.71240	-421.11212	803.83685	1575.48035	-761.98029	876.40997	1534.82483	-577.73773	805.66683	1005.41827	-458.70284	815.00773	1007.39051	-694.87454	800.94132	1017.96286	-489.53348	819.22641	1016.30223	-658.81760
174	3.46000	777.80652	575.42993	-409.08096	790.92883	490.89011	-404.19113	735.27771	114.35204	-409.13232	646.57269	71.55531	-452.20300	847.16498	39.32478	-382.26251	886.27692	73.35261	-445.07562	771.79114	572.92096	-732.52112	795.67828	456.08951	-733.62738	705.91309	113.86591	-731.84552	630.06091	74.07932	-681.13843	821.06940	42.44271	-777.84955	868.44977	70.66148	-721.41736	775.24982	554.22986	-534.46198	747.37585	120.73392	-505.42322	789.02374	561.93860	-609.94342	737.36829	120.82257	-642.06195	786.34326	370.81616	-401.16574	715.87732	491.40164	-392.20923	704.32611	375.60245	-386.03622	708.20325	476.72159	-752.43695	695.27783	354.80148	-753.71185	850.47357	897.28406	-394.43539	848.19110	782.11652	-394.44247	802.70721	749.92346	-381.45264	737.44196	892.67603	-384.74988	742.04272	775.43225	-393.71454	864.93860	838.57184	-751.99524	864.29169	700.43567	-742.77905	749.84381	838.72211	-772.12427	752.25372	704.43811	-752.74487	875.36316	1093.49133	-445.83823	686.88306	1127.06958	-540.14465	886.57159	1095.41968	-703.56287	695.83984	1126.12085	-622.55164	734.82324	1608.70142	-586.46106	776.72083	1581.63843	-421.03763	803.80707	1575.48523	-761.89764	876.49005	1534.73071	-577.76917	805.76300	1005.40128	-458.77399	815.12129	1007.34256	-694.94525	800.89460	1018.16019	-489.54290	819.29094	1016.21160	-658.79874
175	3.48000	777.93304	575.37830	-409.15240	791.00000	490.89850	-404.18970	735.29230	114.33653	-409.15137	646.57043	71.51141	-452.23895	847.18402	39.33048	-382.23163	886.28070	73.35313	-445.09851	771.93335	572.85864	-732.53729	795.72089	456.10007	-733.64966	705.86084	113.80896	-731.85870	630.11444	73.95866	-681.15350	821.08307	42.41568	-777.85522	868.45966	70.62521	-721.40546	775.27405	554.20258	-534.49469	747.35339	120.73549	-505.43954	789.15320	561.94794	-609.92847	737.48724	120.83423	-642.06104	786.39044	370.80023	-401.17520	715.90576	491.37210	-392.24820	704.38843	375.59796	-386.07724	708.27142	476.70691	-752.45905	695.18628	354.81183	-753.60498	850.62836	897.23053	-394.51389	848.24414	782.20038	-394.60098	802.87140	749.83057	-381.49545	737.58215	892.60925	-384.65717	742.22620	775.31616	-393.69162	865.01501	838.53204	-752.01685	864.38873	700.37750	-742.78577	749.98297	838.63843	-772.02448	752.40991	704.49243	-752.79010	875.41974	1093.54614	-445.79825	686.93610	1126.96008	-540.17676	886.63202	1095.44653	-703.61060	695.90991	1126.01929	-622.57208	734.93823	1608.64734	-586.32941	776.85852	1581.53162	-420.95212	803.79364	1575.48059	-761.84113	876.57623	1534.63245	-577.73181	805.89396	1005.39967	-458.77364	815.26547	1007.31603	-694.94459	801.00014	1018.10484	-489.53437	819.43991	1016.17167	-658.84381
176	3.50000	778.07056	575.31451	-409.14847	791.06683	490.89374	-404.26376	735.27496	114.36841	-409.13962	646.60046	71.47178	-452.23621	847.16766	39.33064	-382.26129	886.30847	73.32949	-445.11871	771.97321	572.83484	-732.52490	795.79352	456.07858	-733.64368	705.85767	113.78088	-731.85364	630.11267	73.97924	-681.19049	821.06177	42.36410	-777.89069	868.48767	70.63276	-721.40839	775.36926	554.19659	-534.53308	747.40814	120.74184	-505.44290	789.06494	561.90387	-609.94385	737.41718	120.87037	-642.04663	786.51880	370.76334	-401.23431	716.04761	491.34940	-392.27197	704.41833	375.62045	-386.09009	708.34570	476.74869	-752.46283	695.34064	354.77585	-753.72253	850.75366	897.18591	-394.53687	848.31567	782.15112	-394.73947	803.03528	749.74237	-381.49997	737.76959	892.49103	-384.56854	742.40240	775.27100	-393.66473	865.10199	838.53888	-752.00415	864.46356	700.41284	-742.75366	750.09332	838.73438	-772.19305	752.53174	704.45978	-752.82727	875.47223	1093.54370	-445.87402	686.98535	1126.88281	-540.23602	886.68854	1095.43384	-703.59973	696.05908	1125.94690	-622.59467	735.04858	1608.62500	-586.22797	777.04340	1581.39905	-420.89716	803.79907	1575.49414	-761.79962	876.64374	1534.55518	-577.74640	805.99146	1005.36881	-458.80463	815.38548	1007.27957	-694.97473	801.00643	1018.08128	-489.69312	819.65104	1016.15818	-658.92283
